<svg xmlns="http://www.w3.org/2000/svg" viewBox="0 0 160 160" fill="none">
  <!-- Thin corner frame -->
  <line x1="8" y1="8" x2="64" y2="8" stroke="#C45C8A" stroke-width="1"/>
  <line x1="8" y1="8" x2="8" y2="64" stroke="#C45C8A" stroke-width="1"/>
  <!-- Wildflower 1: pink daisy at top -->
  <circle cx="40" cy="24" r="5" fill="#C45C8A" opacity="0.2"/>
  <circle cx="40" cy="18" r="3" fill="#C45C8A" opacity="0.7"/>
  <circle cx="46" cy="21" r="3" fill="#C45C8A" opacity="0.7"/>
  <circle cx="46" cy="27" r="3" fill="#C45C8A" opacity="0.7"/>
  <circle cx="40" cy="30" r="3" fill="#C45C8A" opacity="0.7"/>
  <circle cx="34" cy="27" r="3" fill="#C45C8A" opacity="0.7"/>
  <circle cx="34" cy="21" r="3" fill="#C45C8A" opacity="0.7"/>
  <circle cx="40" cy="24" r="4" fill="#F9D56E" opacity="0.9"/>
  <!-- Wildflower 2: small meadow flower on the side -->
  <circle cx="24" cy="44" r="3.5" fill="#7BAE7F" opacity="0.2"/>
  <circle cx="24" cy="40" r="2.5" fill="#7BAE7F" opacity="0.7"/>
  <circle cx="28" cy="42" r="2.5" fill="#7BAE7F" opacity="0.7"/>
  <circle cx="28" cy="46" r="2.5" fill="#7BAE7F" opacity="0.7"/>
  <circle cx="24" cy="48" r="2.5" fill="#7BAE7F" opacity="0.7"/>
  <circle cx="20" cy="46" r="2.5" fill="#7BAE7F" opacity="0.7"/>
  <circle cx="20" cy="42" r="2.5" fill="#7BAE7F" opacity="0.7"/>
  <circle cx="24" cy="44" r="3" fill="#F9D56E" opacity="0.9"/>
  <!-- Stems -->
  <path d="M40 29 Q38 40 32 52" stroke="#7BAE7F" stroke-width="1" stroke-linecap="round" fill="none"/>
  <path d="M24 49 Q28 58 36 64" stroke="#7BAE7F" stroke-width="1" stroke-linecap="round" fill="none"/>
  <!-- Leaves -->
  <path d="M37 38 Q32 34 28 38 Q33 36 37 40 Z" fill="#7BAE7F" opacity="0.7"/>
  <path d="M30 50 Q25 46 22 50 Q26 48 30 52 Z" fill="#7BAE7F" opacity="0.7"/>
  <!-- Corner dot -->
  <circle cx="8" cy="8" r="3" fill="#C45C8A"/>
</svg>
